# xmcd
#
# Track frame offsets: 
#        150
#        16696
#        26978
#        36444
#        55175
#        65205
#        80307
#        107807
#        127980
#        143332
#        163727
#        187299
#        202119
#        216449
#        236503
#        258515
#        279176
#        328567
#
# Disc length: 4765 seconds
#
# Revision: 0
# Processed by: cddbd v1.4PL0 Copyright (c) Steve Scherf et al.
# Submitted via: ExactAudioCopy v0.90b4
#
DISCID=0c129b12
DTITLE=Van Morrison - Can You Feel The Silence
DYEAR=1982
DGENRE=Celtic
TTITLE0=High Place
TTITLE1=Into The Mystic
TTITLE2=Moondance
TTITLE3=Wavelength
TTITLE4=Full Force Gale
TTITLE5=Bright Side Of The Road
TTITLE6=It's All In The Game
TTITLE7=She Gives Me Religion
TTITLE8=Northern Muse (Solid Ground)
TTITLE9=Vanlose Stairway
TTITLE10=Help Me
TTITLE11=When I Come Home
TTITLE12=Celtic Ray
TTITLE13=Dweller On The Threshold
TTITLE14=Satisfied
TTITLE15=Cleaning Windows
TTITLE16=Summertime In England
TTITLE17=Scandinavia
EXTD=
EXTT0=
EXTT1=
EXTT2=
EXTT3=
EXTT4=
EXTT5=
EXTT6=
EXTT7=
EXTT8=
EXTT9=
EXTT10=
EXTT11=
EXTT12=
EXTT13=
EXTT14=
EXTT15=
EXTT16=
EXTT17=
PLAYORDER=
